<svg width="32" height="32" viewBox="0 0 32 32" fill="none" xmlns="http://www.w3.org/2000/svg">
<path d="M16 32C24.8366 32 32 24.8366 32 16C32 7.16344 24.8366 0 16 0C7.16344 0 0 7.16344 0 16C0 24.8366 7.16344 32 16 32Z" fill="#FCEBEE"/>
<g clip-path="url(#clip0_173_877)">
<path d="M11.1084 14.7496C11.3928 14.7496 11.6234 14.5191 11.6234 14.2347C11.6234 13.9503 11.3928 13.7198 11.1084 13.7198C10.8241 13.7198 10.5935 13.9503 10.5935 14.2347C10.5935 14.5191 10.8241 14.7496 11.1084 14.7496Z" fill="#E23F5B"/>
<path d="M11.8553 16.2944H10.3616C10.2055 16.2944 10.0786 16.4118 10.0786 16.556V17.6425C10.3984 17.7679 10.7449 17.8391 11.1085 17.8391C11.472 17.8391 11.8185 17.7678 12.1383 17.6425V16.556C12.1383 16.4118 12.0114 16.2944 11.8553 16.2944Z" fill="#E23F5B"/>
<path d="M17.2876 11.4026C17.572 11.4026 17.8026 11.172 17.8026 10.8876C17.8026 10.6033 17.572 10.3727 17.2876 10.3727C17.0032 10.3727 16.7727 10.6033 16.7727 10.8876C16.7727 11.172 17.0032 11.4026 17.2876 11.4026Z" fill="#E23F5B"/>
<path d="M18.0345 12.9474H16.5408C16.3847 12.9474 16.2578 13.0648 16.2578 13.2089V14.2954C16.5776 14.4208 16.9241 14.4921 17.2877 14.4921C17.6512 14.4921 17.9977 14.4208 18.3175 14.2954V13.2089C18.3175 13.0648 18.1906 12.9474 18.0345 12.9474Z" fill="#E23F5B"/>
<path d="M20.6346 18.0966C20.919 18.0966 21.1495 17.8661 21.1495 17.5817C21.1495 17.2973 20.919 17.0667 20.6346 17.0667C20.3502 17.0667 20.1196 17.2973 20.1196 17.5817C20.1196 17.8661 20.3502 18.0966 20.6346 18.0966Z" fill="#E23F5B"/>
<path d="M21.3815 19.6414H19.8877C19.7317 19.6414 19.6047 19.7588 19.6047 19.903V20.9895C19.9245 21.1149 20.271 21.1862 20.6346 21.1862C20.9981 21.1862 21.3447 21.1148 21.6644 20.9895V19.903C21.6644 19.7591 21.5375 19.6414 21.3815 19.6414Z" fill="#E23F5B"/>
<path d="M20.6346 15.5221C20.6001 15.5221 20.5666 15.5259 20.5327 15.5272L19.4407 13.4938C19.8326 13.035 20.0785 12.4503 20.1119 11.8092L21.7316 12.5911C21.6902 12.7026 21.6644 12.8218 21.6644 12.9475C21.6644 13.5154 22.1263 13.9773 22.6943 13.9773C23.2623 13.9773 23.7241 13.5154 23.7241 12.9475C23.7241 12.3795 23.2622 11.9176 22.6943 11.9176C22.4412 11.9176 22.2123 12.0129 22.0329 12.1648L20.0818 11.2227C19.8439 9.69929 18.3916 8.5729 16.7482 8.87799C15.6241 9.08654 14.7199 9.98791 14.5075 11.1112C14.4801 11.2554 14.4647 11.398 14.4588 11.5386L12.9328 12.8442C12.5013 12.4796 11.9601 12.2417 11.3659 12.1879V10.8509C11.8087 10.7359 12.1383 10.3363 12.1383 9.85763C12.1383 9.28965 11.6764 8.82779 11.1084 8.82779C10.5405 8.82779 10.0786 9.28968 10.0786 9.85763C10.0786 10.3362 10.4082 10.7358 10.851 10.8509V12.1879C9.40969 12.3187 8.27636 13.5322 8.27636 15.0069C8.27636 15.9987 8.78976 16.8715 9.56369 17.3776V16.5558C9.56369 16.1277 9.92182 15.7793 10.3616 15.7793H11.8554C12.2953 15.7793 12.6532 16.1277 12.6532 16.5558V17.3776C13.2964 16.9572 13.7544 16.2816 13.8926 15.4969L15.0546 16.4026C15.0008 16.5275 14.9701 16.6647 14.9701 16.8092C14.9701 17.3771 15.432 17.839 16 17.839C16.5679 17.839 17.0298 17.3771 17.0298 16.8092C17.0298 16.2412 16.5679 15.7793 16 15.7793C15.7631 15.7793 15.5473 15.863 15.373 15.9979L13.9336 14.8759C13.9047 14.2459 13.6722 13.6681 13.2961 13.2109L14.5036 12.1774C14.6475 12.9508 15.1065 13.6146 15.7425 14.0304V13.2086C15.7425 12.7804 16.1006 12.432 16.5403 12.432H18.0341C18.4741 12.432 18.832 12.7804 18.832 13.2086V13.4784C18.832 13.5862 18.8943 13.6694 18.9764 13.7124L19.9893 15.5989C18.738 15.8921 17.8024 17.0147 17.8024 18.354C17.8024 18.674 17.8609 18.9793 17.9592 19.2662L16.9168 20.0481C16.4291 19.1915 15.5095 18.6114 14.4552 18.6114C12.9804 18.6114 11.7667 19.7448 11.6362 21.1861H10.299C10.1839 20.7432 9.78409 20.4137 9.30572 20.4137C8.73777 20.4136 8.27588 20.8755 8.27588 21.4435C8.27588 22.0115 8.73777 22.4733 9.30572 22.4733C9.78409 22.4733 10.1839 22.1438 10.299 21.7009H11.6396C11.7202 22.5845 12.2045 23.3525 12.9105 23.8142V22.9924C12.9105 22.5642 13.2686 22.2159 13.7084 22.2159H15.2021C15.6421 22.2159 16 22.5642 16 22.9924V23.8142C16.6043 23.4193 17.0456 22.799 17.2119 22.0748L18.8993 22.8897C18.8578 23.0011 18.8321 23.1203 18.8321 23.246C18.8321 23.814 19.294 24.2758 19.8619 24.2758C20.4299 24.2758 20.8918 23.8139 20.8918 23.246C20.8918 22.678 20.4299 22.2161 19.8619 22.2161C19.6089 22.2161 19.38 22.3114 19.2005 22.4633L17.2814 21.5367C17.2824 21.5053 17.2873 21.4752 17.2873 21.4438C17.2873 21.1235 17.2314 20.8168 17.1331 20.5295L18.1735 19.7491C18.3978 20.142 18.7119 20.4775 19.0898 20.7246V19.9028C19.0898 19.4747 19.448 19.1263 19.8877 19.1263H21.3815C21.8215 19.1263 22.1794 19.4747 22.1794 19.9028V20.7246C22.9533 20.2185 23.4667 19.3457 23.4667 18.3539C23.4667 16.7927 22.1961 15.5221 20.6346 15.5221ZM11.1085 15.2646C10.5405 15.2646 10.0787 14.8027 10.0787 14.2348C10.0787 13.6668 10.5405 13.2049 11.1085 13.2049C11.6764 13.2049 12.1383 13.6668 12.1383 14.2348C12.1383 14.8027 11.6762 15.2646 11.1085 15.2646ZM17.2876 11.9176C16.7196 11.9176 16.2578 11.4557 16.2578 10.8878C16.2578 10.3198 16.7196 9.85793 17.2876 9.85793C17.8555 9.85793 18.3174 10.3198 18.3174 10.8878C18.3174 11.4557 17.8553 11.9176 17.2876 11.9176ZM14.4555 21.7012C13.8875 21.7012 13.4257 21.2393 13.4257 20.6713C13.4257 20.1034 13.8875 19.6415 14.4555 19.6415C15.0234 19.6415 15.4853 20.1034 15.4853 20.6713C15.4853 21.2393 15.0232 21.7012 14.4555 21.7012ZM20.6346 18.6116C20.0666 18.6116 19.6048 18.1497 19.6048 17.5818C19.6048 17.0138 20.0667 16.5519 20.6346 16.5519C21.2025 16.5519 21.6644 17.0138 21.6644 17.5818C21.6644 18.15 21.2023 18.6116 20.6346 18.6116Z" fill="#E23F5B"/>
<path d="M14.4555 21.1862C14.7399 21.1862 14.9704 20.9556 14.9704 20.6712C14.9704 20.3869 14.7399 20.1563 14.4555 20.1563C14.1711 20.1563 13.9406 20.3869 13.9406 20.6712C13.9406 20.9556 14.1711 21.1862 14.4555 21.1862Z" fill="#E23F5B"/>
<path d="M15.2024 22.731H13.7086C13.5526 22.731 13.4257 22.8484 13.4257 22.9925V24.079C13.7454 24.2044 14.092 24.2757 14.4555 24.2757C14.819 24.2757 15.1656 24.2044 15.4853 24.079V22.9925C15.4853 22.8486 15.3584 22.731 15.2024 22.731Z" fill="#E23F5B"/>
</g>
<defs>
<clipPath id="clip0_173_877">
<rect width="15.4483" height="15.4483" fill="white" transform="translate(8.27588 8.82758)"/>
</clipPath>
</defs>
</svg>
